<svg version="1.1" xmlns="http://www.w3.org/2000/svg" xmlns:xlink="http://www.w3.org/1999/xlink" width="222" height="101"><defs/><g><path fill="rgb(43,51,63)" stroke="none" paint-order="stroke fill markers" fill-rule="evenodd" d=" M 1.437469482421875 99.99565255641937 C 1.437469482421875 99.99565255641937 13.136650085449219 99.99565255641937 13.136650085449219 99.99565255641937 C 13.136650085449219 99.99565255641937 13.136650085449219 20.237161815166473 13.136650085449219 20.237161815166473 C 13.136650085449219 20.237161815166473 68.90817260742188 76.01027148962021 68.90817260742188 76.01027148962021 C 68.90817260742188 76.01027148962021 44.90819549560547 99.99565255641937 44.90819549560547 99.99565255641937 C 44.90819549560547 99.99565255641937 61.528221130371094 99.99565255641937 61.528221130371094 99.99565255641937 C 61.528221130371094 99.99565255641937 77.19918823242188 84.31934893131256 77.19918823242188 84.31934893131256 C 77.19918823242188 84.31934893131256 92.86614990234375 99.99565255641937 92.86614990234375 99.99565255641937 C 92.86614990234375 99.99565255641937 109.50872039794922 99.99565255641937 109.50872039794922 99.99565255641937 C 109.50872039794922 99.99565255641937 22.54003143310547 12.988785922527313 22.54003143310547 12.988785922527313 C 22.54003143310547 12.988785922527313 199.75774383544922 12.988785922527313 199.75774383544922 12.988785922527313 C 199.75774383544922 12.988785922527313 112.71867370605469 99.99565255641937 112.71867370605469 99.99565255641937 C 112.71867370605469 99.99565255641937 129.36124420166016 99.99565255641937 129.36124420166016 99.99565255641937 C 129.36124420166016 99.99565255641937 144.2929229736328 85.05582290887833 144.2929229736328 85.05582290887833 C 144.2929229736328 85.05582290887833 159.2274627685547 99.99565255641937 159.2274627685547 99.99565255641937 C 159.2274627685547 99.99565255641937 175.8299789428711 99.99565255641937 175.8299789428711 99.99565255641937 C 175.8299789428711 99.99565255641937 152.60053253173828 76.76464760303497 152.60053253173828 76.76464760303497 C 152.60053253173828 76.76464760303497 208.37102508544922 20.95573365688324 208.37102508544922 20.95573365688324 C 208.37102508544922 20.95573365688324 208.37102508544922 99.99565255641937 208.37102508544922 99.99565255641937 C 208.37102508544922 99.99565255641937 220.1073989868164 99.99565255641937 220.1073989868164 99.99565255641937 C 220.1073989868164 99.99565255641937 220.1073989868164 1.287253737449646 220.1073989868164 1.287253737449646 C 220.1073989868164 1.287253737449646 1.437469482421875 1.287253737449646 1.437469482421875 1.287253737449646 C 1.437469482421875 1.287253737449646 1.437469482421875 99.99565255641937 1.437469482421875 99.99565255641937 Z"/></g></svg>